<svg width="141" height="32" viewBox="0 0 141 32" fill="none" xmlns="http://www.w3.org/2000/svg">
<path d="M120.845 6.16112V16.6327L123.716 13.5521H128.048C128.759 13.5521 129.409 13.2979 130.002 12.8071C130.582 12.3104 130.894 11.7428 130.932 11.0983V8.62084C130.894 7.98226 130.582 7.40872 130.002 6.90614C129.415 6.40946 128.759 6.16112 128.048 6.16112H120.845ZM112.2 0H130.932C132.374 0 133.747 0.271988 135.07 0.821877C136.381 1.37177 137.467 2.19364 138.303 3.29342C139.152 4.38138 139.571 5.75314 139.571 7.38507V12.3222C139.571 13.9601 139.152 15.3259 138.303 16.4257C137.467 17.5137 136.381 18.3415 135.07 18.8795C133.753 19.4235 132.38 19.6955 130.932 19.6955H130.719L141.006 32H130.513L120.851 20.2276V32H112.206V0H112.2ZM96.632 0H109.584V6.16112H99.5033C98.7917 6.16112 98.1301 6.42129 97.5309 6.92979C96.9254 7.45011 96.632 8.01183 96.632 8.62084V15.3851L99.5033 12.3045H108.148L102.375 18.4715H96.632V23.3792C96.632 24.0059 96.9254 24.5735 97.5309 25.088C98.1301 25.6083 98.7855 25.8566 99.5033 25.8566H109.584L106.713 32H96.632C95.1901 32 93.8044 31.728 92.4874 31.184C91.1765 30.6401 90.0967 29.8182 89.254 28.7302C88.4051 27.6305 87.9869 26.2587 87.9869 24.609V7.38507C87.9869 5.75314 88.4051 4.38138 89.254 3.29342C90.1029 2.19364 91.1765 1.37177 92.4874 0.821877C93.8044 0.271988 95.1901 0 96.632 0ZM58.4686 0H67.1137V7.30229L75.6278 0H85.8084L67.1137 15.9882H71.4207L90.0405 32.0059H78.5241L67.1137 22.1789V32.0059H58.4686V0ZM40.0048 6.16112C39.2932 6.16112 38.6316 6.42129 38.0324 6.92979C37.4331 7.45011 37.1335 8.01183 37.1335 8.62084V16.6327L40.0048 13.5521H47.2143V6.15521H40.0048V6.16112ZM37.1398 0H55.8594V32H47.2205V16.6327L44.343 19.6955H37.1398V32H28.5196V7.38507C28.5196 5.75314 28.9378 4.38138 29.7742 3.29342C30.6044 2.19364 31.6843 1.37177 33.0076 0.821877C34.3246 0.271988 35.7103 0 37.1335 0L37.1398 0ZM0 0H25.9042V6.16112H17.2653V32.0059H8.62017V6.16112H0V0Z" fill="#00B14F"/>
</svg>
